# xmcd
#
# Track frame offsets: 
#        150
#        15407
#        27442
#        41652
#        58007
#        69702
#        82337
#        99027
#        114577
#        127735
#        141965
#        155080
#        167765
#        180350
#
# Disc length: 2595 seconds
#
# Revision: 2
# Processed by: cddbd v1.5.2PL0 Copyright (c) Steve Scherf et al.
# Submitted via: ExactAudioCopyFreeDBPlugin 1.0
#
DISCID=b60a210e
DTITLE=Jimmy Patrick - The Midnight Blues Session Unplugged
DYEAR=1900
DGENRE=Blues
TTITLE0=Little White Lies
TTITLE1=Boom Boom
TTITLE2=Nobody Knows You
TTITLE3=Before You Accuse Me
TTITLE4=God Don't Never Change
TTITLE5=You Can Help Yourself Baby
TTITLE6=Quit It Babe
TTITLE7=Sweet And Lovin' Woman
TTITLE8=Tell Me Baby
TTITLE9=Garden In The Sun
TTITLE10=Good Mornin' Little School Girl
TTITLE11=John Henry
TTITLE12=Monkey
TTITLE13=Monkey
EXTD=
EXTT0=
EXTT1=
EXTT2=
EXTT3=
EXTT4=
EXTT5=
EXTT6=
EXTT7=
EXTT8=
EXTT9=
EXTT10=
EXTT11=
EXTT12=
EXTT13=
PLAYORDER=
